<svg width="165" height="165" viewBox="0 0 165 165" fill="none" xmlns="http://www.w3.org/2000/svg">
<path d="M96.25 82.5C96.25 74.9375 90.0625 68.75 82.5 68.75C74.9375 68.75 68.75 74.9375 68.75 82.5C68.75 90.0625 74.9375 96.25 82.5 96.25C90.0625 96.25 96.25 90.0625 96.25 82.5ZM82.5 20.625C48.3313 20.625 20.625 48.3313 20.625 82.5H0L27.5 110L55 82.5H34.375C34.375 55.8938 55.8938 34.375 82.5 34.375C109.106 34.375 130.625 55.8938 130.625 82.5C130.625 109.106 109.106 130.625 82.5 130.625C72.1187 130.625 62.4938 127.256 54.5875 121.688L44.825 131.587C55.275 139.562 68.3375 144.375 82.5 144.375C116.669 144.375 144.375 116.669 144.375 82.5C144.375 48.3313 116.669 20.625 82.5 20.625Z" fill="#FBA26E"/>
</svg>
